<svg viewBox="0 0 176 154" fill="none" xmlns="http://www.w3.org/2000/svg">
<path d="M173.015 41.3758L94.4985 1.61167C92.439 0.568596 90.1628 0.0253179 87.8542 0.0258488V9.09563C88.7355 9.09563 89.616 9.30561 90.4005 9.70296L159.74 44.819L150.292 49.6205L141.222 54.2302L90.2843 80.1189C89.4863 80.5236 88.6044 80.7351 87.7096 80.7364C86.8281 80.7364 85.9474 80.5264 85.1629 80.1291L34.8823 54.6649L25.8125 50.0716L15.8243 45.0132L85.2795 9.71337C86.0775 9.30865 86.9594 9.09712 87.8542 9.09583V0.0260485H87.854C85.5309 0.0261876 83.2407 0.575028 81.1699 1.62787L2.55676 41.582C-0.258929 43.013 -0.26373 47.032 2.54836 48.4562L25.8123 60.2381V127.596C25.8123 131.383 27.7553 134.912 30.9688 136.916C40.0392 142.573 60.5285 153.031 88.0524 153.031C115.124 153.031 135.855 142.547 145.064 136.895C148.318 134.898 150.292 131.347 150.292 127.53V59.7946L173.007 48.25C175.823 46.8192 175.828 42.8001 173.015 41.3758V41.3758ZM141.222 127.53C141.222 128.196 140.876 128.823 140.32 129.165C136.136 131.732 129.27 135.436 120.318 138.502C109.739 142.124 98.883 143.961 88.0524 143.961C77.0224 143.961 66.08 142.129 55.5296 138.514C46.6198 135.462 39.8656 131.775 35.7686 129.22C35.2219 128.879 34.8823 128.257 34.8823 127.596V64.8316L81.0654 88.2206C83.1249 89.2636 85.4012 89.8069 87.7098 89.8064C90.0329 89.8063 92.3231 89.2574 94.3939 88.2046L141.222 64.4044V127.53V127.53Z" fill="currentColor"/>
<path d="M163.912 99.6209C161.408 99.6209 159.378 97.5905 159.378 95.086V64.3296C159.378 61.8251 161.408 59.7948 163.912 59.7948C166.417 59.7948 168.447 61.8251 168.447 64.3296V95.086C168.447 97.5905 166.417 99.6209 163.912 99.6209ZM163.912 123.818C161.408 123.818 159.378 121.788 159.378 119.283V110.948C159.378 108.443 161.408 106.413 163.912 106.413C166.417 106.413 168.447 108.443 168.447 110.948V119.283C168.447 121.788 166.417 123.818 163.912 123.818Z" fill="currentColor"/>
</svg>
