<svg  viewBox="0 0 281 191" fill="none" xmlns="http://www.w3.org/2000/svg">
<path d="M269.663 56.1834L147.164 1.52182C144.917 0.518537 142.484 0 140.023 0C137.562 0 135.129 0.518537 132.882 1.52182L10.3836 56.1834C7.29221 57.5616 4.66635 59.806 2.82358 62.645C0.980821 65.4841 8.93904e-05 68.7963 0 72.181C0 78.4427 3.3518 84.1442 8.66393 87.2685C10.2742 89.1194 12.0989 90.5503 13.5997 91.7011C16.9165 94.2259 17.8092 95.171 17.8092 96.987C17.8092 98.7985 16.9165 99.7437 13.5997 102.268C10.1035 104.942 4.80454 108.985 4.80454 116.84C4.80454 124.69 10.1035 128.733 13.5997 131.411C16.002 133.24 17.1222 134.242 17.5685 135.345C14.9031 135.553 12.3906 136.673 10.4529 138.515C8.51517 140.357 7.27013 142.81 6.92677 145.461L3.84189 169.646C3.63042 171.292 3.77225 172.964 4.25791 174.55C4.74357 176.137 5.56191 177.602 6.65837 178.848C7.75482 180.093 9.1042 181.091 10.6165 181.774C12.1289 182.456 13.7694 182.809 15.4288 182.808H32.2272C33.8866 182.809 35.5271 182.456 37.0395 181.774C38.5518 181.091 39.9012 180.093 40.9976 178.848C42.0941 177.602 42.9124 176.137 43.3981 174.55C43.8838 172.964 44.0256 171.292 43.8141 169.646L40.7336 145.461C40.3779 142.683 39.0345 140.126 36.9489 138.256C34.8633 136.387 32.1746 135.33 29.3742 135.279C28.766 128.374 23.9702 124.624 20.6928 122.121C17.3847 119.601 16.4877 118.656 16.4877 116.84C16.4877 115.024 17.3848 114.083 20.6884 111.558C24.1978 108.88 29.4924 104.837 29.4924 96.987C29.4924 96.8907 29.4705 96.8119 29.4705 96.7201L50.2202 105.992C50.1075 106.712 50.0432 107.439 50.0276 108.167V154.095C50.0276 187.324 113.764 190.912 141.174 190.912C168.575 190.912 232.316 187.324 232.316 154.095V107.274C232.316 106.474 232.237 105.686 232.132 104.907L269.65 88.1918C272.745 86.8164 275.375 84.5729 277.222 81.7332C279.069 78.8934 280.052 75.5792 280.053 72.1918C280.055 68.8045 279.074 65.4894 277.23 62.6482C275.386 59.8069 272.757 57.5613 269.663 56.1834V56.1834ZM15.4288 171.125L18.5137 146.94H29.1423L32.2272 171.125H15.4288V171.125ZM214.791 134.631C211.693 138.556 204.097 143.151 191.232 146.831C188.917 147.492 186.432 148.117 183.85 148.699C182.391 149.089 181.14 150.027 180.357 151.319C179.575 152.611 179.323 154.155 179.654 155.629C179.985 157.102 180.873 158.39 182.132 159.223C183.392 160.056 184.925 160.37 186.41 160.098C189.211 159.472 191.91 158.785 194.44 158.063C202.662 155.714 209.483 152.861 214.791 149.605V154.095C214.791 164.749 181.829 173.387 141.174 173.387C100.51 173.387 67.548 164.749 67.548 154.095V149.281C83.5894 159.437 112.662 164.679 141.52 164.679C148.254 164.679 154.931 164.399 161.377 163.844C162.147 163.786 162.898 163.576 163.587 163.226C164.276 162.876 164.888 162.392 165.389 161.804C165.889 161.216 166.268 160.534 166.503 159.798C166.739 159.062 166.826 158.287 166.76 157.517C166.693 156.748 166.475 155.999 166.117 155.314C165.76 154.629 165.27 154.022 164.676 153.528C164.082 153.034 163.396 152.663 162.658 152.435C161.92 152.208 161.144 152.13 160.375 152.204C154.266 152.729 147.926 152.996 141.52 152.996C100.537 152.996 72.8602 142.438 67.548 133.73V113.737L132.681 142.845C134.928 143.847 137.36 144.366 139.821 144.368C142.282 144.369 144.715 143.853 146.963 142.853L214.791 112.635V134.631V134.631ZM139.831 126.843L17.5248 72.1854L140.023 17.5238L262.522 72.1854L139.831 126.843Z" fill="currentColor"/>
</svg>
