<svg viewBox="0 0 176 150" fill="none" xmlns="http://www.w3.org/2000/svg">
<path d="M160.917 25H129.667V13.75C129.25 5.83333 122.583 0 114.667 0H56.3333C48.4167 0.416667 42.1667 6.66667 42.1667 14.5833V25H15.0833C7.16667 25 0.5 31.6667 0.5 39.5833V135.417C0.5 143.333 7.16667 150 15.0833 150H160.917C168.833 150 175.5 143.333 175.5 135.417V39.5833C175.5 31.6667 168.833 25 160.917 25V25ZM54.6667 14.5833C55.0833 13.3333 55.9167 12.5 57.1667 12.5H115.083C116.333 12.5 117.167 13.75 117.167 14.5833V25H54.6667V14.5833ZM15.0833 37.5H160.917C162.167 37.5 163 38.3333 163 39.5833V64.5833H13V39.5833C13 38.3333 13.8333 37.5 15.0833 37.5ZM69.25 77.0833H106.75V87.5C106.75 88.75 105.917 89.5833 104.667 89.5833H71.3333C70.0833 89.5833 69.25 88.75 69.25 87.5V77.0833V77.0833ZM160.917 137.5H15.0833C13.8333 137.5 13 136.667 13 135.417V77.0833H56.75V87.5C56.75 95.4167 63.4167 102.083 71.3333 102.083H104.667C112.583 102.083 119.25 95.4167 119.25 87.5V77.0833H163V135.417C163 136.667 162.167 137.5 160.917 137.5Z" fill="currentColor"/>
</svg>
