<svg viewBox="0 0 168 167" fill="none" xmlns="http://www.w3.org/2000/svg">
<path d="M125.667 17H159C161.21 17 163.33 17.878 164.893 19.4408C166.455 21.0036 167.333 23.1232 167.333 25.3333V158.667C167.333 160.877 166.455 162.996 164.893 164.559C163.33 166.122 161.21 167 159 167H9.00002C6.78988 167 4.67027 166.122 3.10746 164.559C1.54466 162.996 0.666687 160.877 0.666687 158.667V25.3333C0.666687 23.1232 1.54466 21.0036 3.10746 19.4408C4.67027 17.878 6.78988 17 9.00002 17H42.3333V0.333344H59V17H109V0.333344H125.667V17ZM150.667 67V33.6667H125.667V50.3333H109V33.6667H59V50.3333H42.3333V33.6667H17.3334V67H150.667V67ZM150.667 83.6667H17.3334V150.333H150.667V83.6667V83.6667ZM34 100.333H75.6667V133.667H34V100.333Z" fill="currentColor"/>
</svg>
