<svg viewBox="0 0 143 157" fill="none" xmlns="http://www.w3.org/2000/svg">
<path d="M120.844 14.2969H106.664V7.20703C106.664 3.28125 103.48 0.117188 99.5742 0.117188C95.668 0.117188 92.4844 3.30078 92.4844 7.20703V14.2969H49.9063V7.20703C49.9063 3.28125 46.7227 0.117188 42.8164 0.117188C38.8906 0.117188 35.7266 3.30078 35.7266 7.20703V14.2969H21.5469C9.78906 14.2969 0.277344 23.8281 0.277344 35.5664V134.863C0.277344 146.621 9.80859 156.133 21.5469 156.133H120.844C132.602 156.133 142.113 146.602 142.113 134.863V35.5859C142.133 23.8281 132.602 14.2969 120.844 14.2969V14.2969ZM127.934 134.883C127.934 138.809 124.75 141.973 120.844 141.973H21.5469C17.6211 141.973 14.457 138.789 14.457 134.883V63.9648H127.953V134.883H127.934ZM127.934 49.7656H14.457V35.5859C14.457 31.6602 17.6406 28.4961 21.5469 28.4961H35.7266V35.5859C35.7266 39.5117 38.9102 42.6758 42.8164 42.6758C46.7422 42.6758 49.9063 39.4922 49.9063 35.5859V28.4961H92.4648V35.5859C92.4648 39.5117 95.6484 42.6758 99.5547 42.6758C103.461 42.6758 106.645 39.4922 106.645 35.5859V28.4961H120.824C124.75 28.4961 127.914 31.6797 127.914 35.5859V49.7656H127.934Z" fill="currentColor"/>
<path d="M97.8164 89.9023C100.395 86.9531 100.082 82.4609 97.1328 79.9023C94.1836 77.3242 89.6914 77.6367 87.1328 80.5859L61.5274 109.922L55.2578 102.734C52.6797 99.7852 48.2071 99.4727 45.2578 102.051C42.3086 104.629 41.9961 109.102 44.5742 112.051L56.1758 125.352C57.5235 126.895 59.4766 127.773 61.5274 127.773C63.5781 127.773 65.5313 126.895 66.8789 125.352L97.8164 89.9023V89.9023Z" fill="currentColor"/>
</svg>
