<svg viewBox="0 0 157 176" fill="none" xmlns="http://www.w3.org/2000/svg">
<path d="M122.125 88C141.11 88 156.5 103.383 156.5 122.358C156.5 135.009 145.042 152.722 122.125 175.5C99.2084 152.722 87.75 135.008 87.75 122.358C87.75 103.383 103.14 88 122.125 88ZM26.8125 9.875V23.9375H14.3125V152.062H76.8125C77.2269 152.062 77.6243 152.227 77.9174 152.52C78.2104 152.813 78.375 153.211 78.375 153.625V164.562C78.375 164.977 78.2104 165.374 77.9174 165.667C77.6243 165.96 77.2269 166.125 76.8125 166.125H6.5C3.04824 166.125 0.25 163.327 0.25 159.875V16.125C0.25 12.6732 3.0207 9.875 6.43848 9.875H26.8125ZM122.125 103.625C111.77 103.625 103.375 112.02 103.375 122.375C103.375 132.73 111.77 141.125 122.125 141.125C132.48 141.125 140.875 132.73 140.875 122.375C140.875 112.02 132.48 103.625 122.125 103.625ZM67.6328 97.7656C68.0472 97.7656 68.4446 97.9302 68.7377 98.2233C69.0307 98.5163 69.1953 98.9137 69.1953 99.3281V108.703C69.1953 109.118 69.0307 109.515 68.7377 109.808C68.4446 110.101 68.0472 110.266 67.6328 110.266H26.8125C26.3981 110.266 26.0007 110.101 25.7076 109.808C25.4146 109.515 25.25 109.118 25.25 108.703V99.3281C25.25 98.9137 25.4146 98.5163 25.7076 98.2233C26.0007 97.9302 26.3981 97.7656 26.8125 97.7656H67.6328ZM89.3125 72.375C89.7269 72.375 90.1243 72.5396 90.4174 72.8326C90.7104 73.1257 90.875 73.5231 90.875 73.9375V83.3125C90.875 83.7269 90.7104 84.1243 90.4174 84.4174C90.1243 84.7104 89.7269 84.875 89.3125 84.875H26.8125C26.3981 84.875 26.0007 84.7104 25.7076 84.4174C25.4146 84.1243 25.25 83.7269 25.25 83.3125V73.9375C25.25 73.5231 25.4146 73.1257 25.7076 72.8326C26.0007 72.5396 26.3981 72.375 26.8125 72.375H89.3125ZM131.562 9.875C134.979 9.875 137.75 12.6732 137.75 16.125V77.0625C137.75 77.4769 137.585 77.8743 137.292 78.1674C136.999 78.4604 136.602 78.625 136.188 78.625H125.25C124.836 78.625 124.438 78.4604 124.145 78.1674C123.852 77.8743 123.688 77.4769 123.688 77.0625V23.9375H111.188V9.875H131.562ZM111.188 47.375C111.602 47.375 111.999 47.5396 112.292 47.8326C112.585 48.1257 112.75 48.5231 112.75 48.9375V58.3125C112.75 58.7269 112.585 59.1243 112.292 59.4174C111.999 59.7104 111.602 59.875 111.188 59.875H26.8125C26.3981 59.875 26.0007 59.7104 25.7076 59.4174C25.4146 59.1243 25.25 58.7269 25.25 58.3125V48.9375C25.25 48.5231 25.4146 48.1257 25.7076 47.8326C26.0007 47.5396 26.3981 47.375 26.8125 47.375H111.188ZM47.125 0.5C47.5394 0.5 47.9368 0.66462 48.2299 0.957646C48.5229 1.25067 48.6875 1.6481 48.6875 2.0625V31.75C48.6875 32.1644 48.5229 32.5618 48.2299 32.8549C47.9368 33.1479 47.5394 33.3125 47.125 33.3125H39.3125C38.8981 33.3125 38.5007 33.1479 38.2076 32.8549C37.9146 32.5618 37.75 32.1644 37.75 31.75V2.0625C37.75 1.6481 37.9146 1.25067 38.2076 0.957646C38.5007 0.66462 38.8981 0.5 39.3125 0.5H47.125ZM98.6875 0.5C99.1019 0.5 99.4993 0.66462 99.7924 0.957646C100.085 1.25067 100.25 1.6481 100.25 2.0625V31.75C100.25 32.1644 100.085 32.5618 99.7924 32.8549C99.4993 33.1479 99.1019 33.3125 98.6875 33.3125H90.875C90.4606 33.3125 90.0632 33.1479 89.7701 32.8549C89.4771 32.5618 89.3125 32.1644 89.3125 31.75V2.0625C89.3125 1.6481 89.4771 1.25067 89.7701 0.957646C90.0632 0.66462 90.4606 0.5 90.875 0.5H98.6875ZM78.375 9.875V23.9375H59.625V9.875H78.375Z" fill="currentColor"/>
</svg>
