<svg viewBox="0 0 200 200" fill="none" xmlns="http://www.w3.org/2000/svg">
<path d="M181.252 0H43.7551C33.3993 0 25.0035 8.38783 25.0035 18.7516V31.2514H18.7516C8.39583 31.2514 0 39.6392 0 50.003V175.001C0 188.808 11.1918 200 24.9995 200H174.997C188.804 200 199.996 188.808 199.996 175.001V18.7516C199.996 8.38783 191.596 0 181.244 0L181.252 0ZM187.5 174.996C187.5 181.884 181.888 187.496 175.001 187.496H25.0035C18.1116 187.496 12.5038 181.884 12.5038 174.996V49.999C12.5038 46.5511 15.3037 43.7471 18.7556 43.7471H25.0075V168.745C25.0075 172.201 27.7994 174.996 31.2594 174.996C34.7193 174.996 37.5113 172.205 37.5113 168.745V18.7476C37.5113 15.2957 40.3112 12.4958 43.7631 12.4958H181.26C184.704 12.4958 187.512 15.2957 187.512 18.7476V174.996H187.5ZM121.866 81.2784C120.146 81.2784 118.742 79.8784 118.742 78.1544C118.742 76.4305 120.15 75.0305 121.866 75.0305H171.865C173.597 75.0305 174.989 76.4305 174.989 78.1544C174.989 79.8784 173.597 81.2784 171.865 81.2784H121.866ZM121.866 62.5308C120.146 62.5308 118.742 61.1308 118.742 59.4068C118.742 57.6828 120.15 56.2829 121.866 56.2829H171.865C173.597 56.2829 174.989 57.6828 174.989 59.4068C174.989 61.1308 173.597 62.5308 171.865 62.5308H121.866ZM121.866 43.7791C120.146 43.7791 118.742 42.3792 118.742 40.6552C118.742 38.9312 120.15 37.5313 121.866 37.5313H171.865C173.597 37.5313 174.989 38.9312 174.989 40.6552C174.989 42.3792 173.597 43.7791 171.865 43.7791H121.866ZM103.126 168.773C104.85 168.773 106.25 170.181 106.25 171.897C106.25 173.629 104.842 175.021 103.126 175.021H53.1269C51.403 175.021 50.003 173.629 50.003 171.897C50.003 170.177 51.403 168.773 53.1269 168.773H103.126ZM103.126 150.021C104.85 150.021 106.25 151.429 106.25 153.145C106.25 154.877 104.842 156.269 103.126 156.269H53.1269C51.403 156.269 50.003 154.877 50.003 153.145C50.003 151.425 51.403 150.021 53.1269 150.021H103.126ZM103.126 131.273C104.85 131.273 106.25 132.681 106.25 134.397C106.25 136.129 104.842 137.521 103.126 137.521H53.1269C51.403 137.521 50.003 136.129 50.003 134.397C50.003 132.677 51.403 131.273 53.1269 131.273H103.126ZM171.877 168.773C173.597 168.773 175.001 170.181 175.001 171.897C175.001 173.629 173.593 175.021 171.877 175.021H121.878C120.146 175.021 118.754 173.629 118.754 171.897C118.754 170.177 120.146 168.773 121.878 168.773H171.877ZM171.877 150.021C173.597 150.021 175.001 151.429 175.001 153.145C175.001 154.877 173.593 156.269 171.877 156.269H121.878C120.146 156.269 118.754 154.877 118.754 153.145C118.754 151.425 120.146 150.021 121.878 150.021H171.877ZM171.877 131.273C173.597 131.273 175.001 132.681 175.001 134.397C175.001 136.129 173.593 137.521 171.877 137.521H121.878C120.146 137.521 118.754 136.129 118.754 134.397C118.754 132.677 120.146 131.273 121.878 131.273H171.877ZM171.877 93.7741C173.597 93.7741 175.001 95.1741 175.001 96.8981C175.001 98.622 173.593 100.022 171.877 100.022H53.1269C51.403 100.022 50.003 98.622 50.003 96.8981C50.003 95.1741 51.403 93.7741 53.1269 93.7741H171.877ZM171.877 112.522C173.597 112.522 175.001 113.93 175.001 115.646C175.001 117.378 173.593 118.77 171.877 118.77H53.1269C51.403 118.77 50.003 117.378 50.003 115.646C50.003 113.926 51.403 112.522 53.1269 112.522H171.877ZM56.2549 81.2504H100.006C103.462 81.2504 106.258 78.4584 106.258 74.9985V31.2754C106.258 27.8194 103.466 25.0235 100.006 25.0235H56.2549C52.7989 25.0235 50.003 27.8154 50.003 31.2754V74.9985C50.003 78.4504 52.7949 81.2504 56.2549 81.2504V81.2504ZM62.5028 37.4992H93.7541V68.7506H62.5028V37.4992V37.4992Z" fill="currentColor"/>
</svg>
