<svg viewBox="0 0 200 200" fill="none" xmlns="http://www.w3.org/2000/svg">
<path d="M170.625 29.375C151.875 10.3125 126.875 0 100 0C73.125 0 48.125 10.3125 29.375 29.375C10.625 48.4375 0 73.125 0 100C0 126.875 10.3125 151.875 29.375 170.625C48.4375 189.375 73.125 200 100 200C126.875 200 151.875 189.687 170.625 170.625C189.375 151.562 200 126.875 200 100C200 73.125 189.687 48.125 170.625 29.375V29.375ZM100 190.313C50 190.313 9.6875 150 9.6875 100C9.6875 50 50 9.6875 100 9.6875C150 9.6875 190.313 50.3125 190.313 100C190.313 149.687 150 190.313 100 190.313Z" fill="currentColor"/>
<path d="M147.187 53.75C143.75 51.5625 138.438 53.4375 137.188 54.0625L41.5625 91.25C38.125 92.5 34.375 95.3125 35 99.6875C35.625 104.687 40.9375 106.562 41.5625 106.875L63.75 114.375C65.3125 120 70.625 137.187 71.875 140.937C72.8125 144.062 74.0625 147.812 77.5 147.812C77.8125 148.125 78.4375 148.125 79.375 148.125C81.5625 148.125 82.8125 147.5 83.4375 146.563L96.25 134.687L117.813 151.25C118.125 151.563 118.125 151.562 118.75 151.562C120.625 152.5 122.188 152.5 123.438 152.5C124.688 152.5 126.25 152.187 126.875 151.875C130.625 150.312 132.188 146.875 132.5 146.25C132.5 145.937 132.813 145.937 132.813 145.625L150 60V59.375C150 55.9375 148.125 54.375 147.187 53.75ZM82.8125 137.188L84.0625 125.312L90.3125 130L82.8125 137.188ZM125.625 144.062C125.313 144.375 125 145 124.375 145.312C123.75 145.625 123.125 145.625 122.187 145L98.4375 126.562L86.5625 117.187C96.5625 108.437 127.5 80.625 128.75 79.0625C130 77.8125 131.563 76.25 131.25 74.0625C131.25 73.75 131.25 73.75 130.938 73.4375C130.625 72.1875 130 70.9375 128.75 70.3125C126.563 69.0625 124.063 70 121.875 71.25L65.625 107.187L43.4375 99.6875C43.125 99.375 42.5 99.375 42.1875 98.75C42.5 98.4375 43.125 98.125 43.4375 98.125H43.75L139.063 60.625H139.375C140 60.3125 140.938 60 141.875 60L125.625 144.062V144.062Z" fill="currentColor"/>
</svg>
