<svg viewBox="0 0 126 138" fill="none" xmlns="http://www.w3.org/2000/svg">
<path d="M63 0.25C38.9062 0.25 19.25 19.9062 19.25 44C19.25 59.0625 26.9375 72.4375 38.5875 80.3312C16.2937 89.8937 0.5 112.019 0.5 137.75H13C13 110.063 35.3125 87.75 63 87.75C90.6875 87.75 113 110.063 113 137.75H125.5C125.5 112.019 109.706 89.9 87.4125 80.325C93.3584 76.3111 98.2301 70.9012 101.601 64.5687C104.972 58.2361 106.74 51.1739 106.75 44C106.75 19.9062 87.0938 0.25 63 0.25ZM63 12.75C80.3313 12.75 94.25 26.6687 94.25 44C94.25 61.3313 80.3313 75.25 63 75.25C45.6687 75.25 31.75 61.3313 31.75 44C31.75 26.6687 45.6687 12.75 63 12.75Z" fill="currentColor"/>
</svg>
