<svg viewBox="0 0 35 35" xmlns="http://www.w3.org/2000/svg">
<path d="M23.6249 21.5835C26.9789 19.5421 29.1662 15.8963 29.1662 11.6669C29.1669 5.25014 23.9168 0 17.5 0C11.0832 0 5.83311 5.25014 5.83311 11.6669C5.83311 15.8963 8.02044 19.5421 11.3751 21.5835C5.54196 23.7708 1.16662 28.8751 0 35H2.91689C4.37534 28.2914 10.3544 23.3331 17.5 23.3331C24.6456 23.3331 30.6247 28.2914 32.0831 35H35C33.8334 28.7292 29.4587 23.6249 23.6249 21.5835ZM8.75 11.6669C8.75 6.8545 12.6876 2.91689 17.5 2.91689C22.3124 2.91689 26.25 6.8545 26.25 11.6669C26.25 16.4793 22.3124 20.4169 17.5 20.4169C12.6876 20.4169 8.75 16.4793 8.75 11.6669Z" fill="currentColor"/>
</svg>
