<svg viewBox="0 0 211 126" fill="none" xmlns="http://www.w3.org/2000/svg">
<path d="M205.891 8.97656C207.336 4.09375 205.891 0.5 198.938 0.5H175.93C170.07 0.5 167.375 3.58594 165.93 7.02344C165.93 7.02344 154.211 35.5781 137.648 54.0937C132.297 59.4453 129.836 61.1641 126.906 61.1641C125.461 61.1641 123.234 59.4453 123.234 54.5625V8.97656C123.234 3.11719 121.594 0.5 116.75 0.5H80.5781C76.9062 0.5 74.7187 3.23438 74.7187 5.77344C74.7187 11.3203 83 12.6094 83.8594 28.2344V62.1406C83.8594 69.5625 82.5312 70.9297 79.6016 70.9297C71.7891 70.9297 52.8047 42.2578 41.5547 9.44531C39.2891 3.07813 37.0625 0.5 31.1641 0.5H8.15625C1.59375 0.5 0.265625 3.58594 0.265625 7.02344C0.265625 13.1172 8.07812 43.3906 36.6328 83.3906C55.6562 110.695 82.4531 125.5 106.828 125.5C121.477 125.5 123.273 122.219 123.273 116.555C123.273 90.4609 121.945 88 129.289 88C132.687 88 138.547 89.7188 152.219 102.883C167.844 118.508 170.422 125.5 179.172 125.5H202.18C208.742 125.5 212.063 122.219 210.148 115.734C205.773 102.102 176.203 74.0547 174.875 72.1797C171.477 67.8047 172.453 65.8516 174.875 61.9453C174.914 61.9063 203 22.375 205.891 8.97656V8.97656Z" fill="currentColor"/>
</svg>
