<svg xmlns="http://www.w3.org/2000/svg">
<symbol id="user" viewBox="0 0 35 35"><path d="M23.625 21.584c3.354-2.042 5.541-5.688 5.541-9.917C29.166 5.25 23.916 0 17.5 0 11.083 0 5.833 5.25 5.833 11.667c0 4.23 2.187 7.875 5.542 9.917C5.542 23.77 1.167 28.875 0 35h2.917c1.458-6.709 7.437-11.667 14.583-11.667S30.625 28.291 32.083 35H35c-1.167-6.27-5.541-11.375-11.375-13.416zM8.75 11.667c0-4.813 3.938-8.75 8.75-8.75 4.812 0 8.75 3.938 8.75 8.75 0 4.812-3.938 8.75-8.75 8.75-4.812 0-8.75-3.938-8.75-8.75z" fill="currentColor"/></symbol>
</svg>