<svg xmlns="http://www.w3.org/2000/svg">
<symbol id="bachelor" viewBox="0 0 176 154"><path d="M173.015 41.376L94.499 1.612A14.698 14.698 0 0087.854.026v9.07c.882 0 1.762.21 2.546.607l69.34 35.116-9.448 4.801-9.07 4.61L90.284 80.12a5.664 5.664 0 01-5.121.01l-50.28-25.464-9.07-4.593-9.989-5.059 69.456-35.3a5.71 5.71 0 012.574-.617V.026a14.75 14.75 0 00-6.684 1.602L2.557 41.582c-2.816 1.431-2.82 5.45-.009 6.874l23.264 11.782v67.358a10.98 10.98 0 005.157 9.32c9.07 5.657 29.56 16.115 57.083 16.115 27.072 0 47.803-10.484 57.012-16.136a10.984 10.984 0 005.228-9.365V59.795l22.715-11.545c2.816-1.43 2.821-5.45.008-6.874zm-31.793 86.154c0 .666-.346 1.293-.902 1.635-4.184 2.567-11.05 6.271-20.002 9.337-10.579 3.622-21.435 5.459-32.266 5.459-11.03 0-21.972-1.832-32.522-5.447-8.91-3.052-15.664-6.739-19.761-9.294a1.92 1.92 0 01-.887-1.624V64.832L81.065 88.22a14.7 14.7 0 006.645 1.585 14.75 14.75 0 006.684-1.601l46.828-23.8v63.125z" fill="currentColor"/><path d="M163.912 99.62a4.535 4.535 0 01-4.534-4.534V64.33a4.534 4.534 0 119.069 0v30.756a4.535 4.535 0 01-4.535 4.535zm0 24.198a4.534 4.534 0 01-4.534-4.535v-8.335a4.534 4.534 0 119.069 0v8.335a4.535 4.535 0 01-4.535 4.535z" fill="currentColor"/></symbol>
<symbol id="bachelor2" viewBox="0 0 281 191"><path d="M269.663 56.183L147.164 1.522a17.514 17.514 0 00-14.282 0L10.384 56.183A17.516 17.516 0 000 72.181c0 6.262 3.352 11.963 8.664 15.088 1.61 1.85 3.435 3.281 4.936 4.432 3.316 2.525 4.21 3.47 4.21 5.286 0 1.812-.893 2.757-4.21 5.281-3.496 2.674-8.795 6.717-8.795 14.572 0 7.85 5.299 11.893 8.795 14.571 2.402 1.829 3.522 2.831 3.969 3.934a11.643 11.643 0 00-10.642 10.116l-3.085 24.185a11.67 11.67 0 002.816 9.202 11.683 11.683 0 008.77 3.96h16.8a11.682 11.682 0 0011.17-8.258 11.67 11.67 0 00.416-4.904l-3.08-24.185a11.667 11.667 0 00-11.36-10.182c-.608-6.905-5.404-10.655-8.681-13.158-3.308-2.52-4.205-3.465-4.205-5.281 0-1.816.897-2.757 4.2-5.282 3.51-2.678 8.804-6.721 8.804-14.571 0-.096-.021-.175-.021-.267l20.75 9.272a16.33 16.33 0 00-.193 2.175v45.928c0 33.229 63.736 36.817 91.146 36.817 27.401 0 91.142-3.588 91.142-36.817v-46.821c0-.8-.079-1.588-.184-2.367l37.518-16.715a17.521 17.521 0 0010.403-16 17.512 17.512 0 00-10.39-16.009zM15.429 171.125l3.085-24.185h10.628l3.085 24.185H15.43zm199.362-36.494c-3.098 3.925-10.694 8.52-23.559 12.2a135.98 135.98 0 01-7.382 1.868 5.85 5.85 0 00-4.196 6.93 5.847 5.847 0 006.756 4.469c2.801-.626 5.5-1.313 8.03-2.035 8.222-2.349 15.043-5.202 20.351-8.458v4.49c0 10.654-32.962 19.292-73.617 19.292-40.664 0-73.626-8.638-73.626-19.292v-4.814c16.041 10.156 45.114 15.398 73.972 15.398 6.734 0 13.411-.28 19.857-.835a5.85 5.85 0 004.012-2.04 5.839 5.839 0 001.371-4.287 5.853 5.853 0 00-2.084-3.989 5.861 5.861 0 00-2.018-1.093 5.857 5.857 0 00-2.283-.231 221.14 221.14 0 01-18.855.792c-40.983 0-68.66-10.558-73.972-19.266v-19.993l65.133 29.108a17.553 17.553 0 0014.282.008l67.828-30.218v21.996zm-74.96-7.788L17.525 72.185l122.498-54.661 122.499 54.661-122.691 54.658z" fill="currentColor"/></symbol>
<symbol id="briefcase" viewBox="0 0 176 150"><path d="M160.917 25h-31.25V13.75c-.417-7.917-7.084-13.75-15-13.75H56.333c-7.916.417-14.166 6.667-14.166 14.583V25H15.083C7.167 25 .5 31.667.5 39.583v95.834C.5 143.333 7.167 150 15.083 150h145.834c7.916 0 14.583-6.667 14.583-14.583V39.583c0-7.916-6.667-14.583-14.583-14.583zM54.667 14.583c.416-1.25 1.25-2.083 2.5-2.083h57.916c1.25 0 2.084 1.25 2.084 2.083V25h-62.5V14.583zM15.083 37.5h145.834c1.25 0 2.083.833 2.083 2.083v25H13v-25c0-1.25.833-2.083 2.083-2.083zM69.25 77.083h37.5V87.5c0 1.25-.833 2.083-2.083 2.083H71.333c-1.25 0-2.083-.833-2.083-2.083V77.083zm91.667 60.417H15.083c-1.25 0-2.083-.833-2.083-2.083V77.083h43.75V87.5c0 7.917 6.667 14.583 14.583 14.583h33.334c7.916 0 14.583-6.666 14.583-14.583V77.083H163v58.334c0 1.25-.833 2.083-2.083 2.083z" fill="currentColor"/></symbol>
<symbol id="calendar" viewBox="0 0 143 157"><path d="M120.844 14.297h-14.18v-7.09a7.09 7.09 0 00-7.09-7.09c-3.906 0-7.09 3.184-7.09 7.09v7.09H49.906v-7.09a7.09 7.09 0 00-7.09-7.09 7.09 7.09 0 00-7.09 7.09v7.09h-14.18C9.79 14.297.278 23.828.278 35.567v99.296c0 11.758 9.532 21.27 21.27 21.27h99.297c11.758 0 21.269-9.531 21.269-21.27V35.586c.02-11.758-9.511-21.29-21.269-21.29zm7.09 120.586a7.09 7.09 0 01-7.09 7.09H21.547a7.09 7.09 0 01-7.09-7.09V63.965h113.496v70.918h-.019zm0-85.117H14.457v-14.18a7.09 7.09 0 017.09-7.09h14.18v7.09a7.09 7.09 0 007.09 7.09 7.09 7.09 0 007.09-7.09v-7.09h42.558v7.09a7.09 7.09 0 007.09 7.09c3.906 0 7.09-3.184 7.09-7.09v-7.09h14.179a7.09 7.09 0 017.09 7.09v14.18h.02z" fill="currentColor"/><path d="M97.816 89.902c2.579-2.949 2.266-7.441-.683-10-2.95-2.578-7.442-2.265-10 .684l-25.606 29.336-6.27-7.188c-2.577-2.949-7.05-3.261-10-.683-2.948 2.578-3.26 7.051-.683 10l11.602 13.301a7.1 7.1 0 005.351 2.421 7.1 7.1 0 005.352-2.421l30.937-35.45z" fill="currentColor"/></symbol>
<symbol id="calendar2" viewBox="0 0 168 167"><path d="M125.667 17H159a8.335 8.335 0 018.333 8.333v133.334A8.335 8.335 0 01159 167H9a8.333 8.333 0 01-8.333-8.333V25.333A8.333 8.333 0 019 17h33.333V.333H59V17h50V.333h16.667V17zm25 50V33.667h-25v16.666H109V33.667H59v16.666H42.333V33.667h-25V67h133.334zm0 16.667H17.333v66.666h133.334V83.667zM34 100.333h41.667v33.334H34v-33.334z" fill="currentColor"/></symbol>
<symbol id="geo-list" viewBox="0 0 157 176"><path d="M122.125 88c18.985 0 34.375 15.383 34.375 34.358 0 12.651-11.458 30.364-34.375 53.142-22.917-22.778-34.375-40.492-34.375-53.142C87.75 103.383 103.14 88 122.125 88zM26.812 9.875v14.063h-12.5v128.124h62.5a1.563 1.563 0 011.563 1.563v10.937a1.562 1.562 0 01-1.563 1.563H6.5a6.25 6.25 0 01-6.25-6.25V16.125c0-3.452 2.77-6.25 6.188-6.25h20.375zm95.313 93.75c-10.355 0-18.75 8.395-18.75 18.75s8.395 18.75 18.75 18.75 18.75-8.395 18.75-18.75-8.395-18.75-18.75-18.75zm-54.492-5.86a1.562 1.562 0 011.562 1.563v9.375a1.562 1.562 0 01-1.562 1.563h-40.82a1.563 1.563 0 01-1.563-1.563v-9.375a1.562 1.562 0 011.563-1.562h40.82zm21.68-25.39a1.563 1.563 0 011.562 1.563v9.374a1.563 1.563 0 01-1.563 1.563h-62.5a1.563 1.563 0 01-1.562-1.563v-9.374a1.563 1.563 0 011.563-1.563h62.5zm42.249-62.5c3.417 0 6.188 2.798 6.188 6.25v60.938a1.563 1.563 0 01-1.562 1.562H125.25a1.564 1.564 0 01-1.562-1.563V23.938h-12.5V9.874h20.374zm-20.374 37.5a1.561 1.561 0 011.562 1.563v9.374a1.563 1.563 0 01-1.562 1.563H26.812a1.563 1.563 0 01-1.562-1.563v-9.374a1.563 1.563 0 011.563-1.563h84.375zM47.125.5a1.563 1.563 0 011.563 1.563V31.75a1.563 1.563 0 01-1.563 1.563h-7.813a1.563 1.563 0 01-1.562-1.563V2.062A1.563 1.563 0 0139.313.5h7.812zm51.563 0a1.563 1.563 0 011.562 1.563V31.75a1.564 1.564 0 01-1.563 1.563h-7.812a1.563 1.563 0 01-1.563-1.563V2.062A1.563 1.563 0 0190.876.5h7.813zM78.374 9.875v14.063h-18.75V9.874h18.75z" fill="currentColor"/></symbol>
<symbol id="logo" viewBox="0 0 461 194"><path d="M92.076 193.848L230.2 48.458l138.124 145.39H460.4L276.238 0h-92.076L0 193.848h92.076z" fill="currentColor"/><path d="M446.314 0L262.152 193.848h-92.076L354.238 0h92.076z" fill="#EA6712"/></symbol>
<symbol id="news" viewBox="0 0 200 200"><path d="M181.252 0H43.755C33.4 0 25.003 8.388 25.003 18.752v12.5h-6.251C8.396 31.251 0 39.638 0 50.002v124.998C0 188.808 11.192 200 25 200h149.997c13.807 0 24.999-11.192 24.999-24.999V18.751c0-10.363-8.4-18.751-18.752-18.751h.008zm6.248 174.996c0 6.888-5.612 12.5-12.499 12.5H25.003c-6.891 0-12.5-5.612-12.5-12.5V49.999c0-3.448 2.8-6.252 6.253-6.252h6.252v124.998a6.245 6.245 0 006.251 6.251 6.242 6.242 0 006.252-6.251V18.748c0-3.452 2.8-6.252 6.252-6.252H181.26c3.444 0 6.252 2.8 6.252 6.252v156.248h-.012zm-65.634-93.718c-1.72 0-3.124-1.4-3.124-3.124a3.13 3.13 0 013.124-3.123h49.999a3.12 3.12 0 013.124 3.123 3.12 3.12 0 01-3.124 3.124h-49.999zm0-18.747c-1.72 0-3.124-1.4-3.124-3.124a3.13 3.13 0 013.124-3.124h49.999a3.12 3.12 0 013.124 3.124 3.12 3.12 0 01-3.124 3.124h-49.999zm0-18.752c-1.72 0-3.124-1.4-3.124-3.124a3.13 3.13 0 013.124-3.124h49.999a3.12 3.12 0 013.124 3.124 3.12 3.12 0 01-3.124 3.124h-49.999zm-18.74 124.994a3.13 3.13 0 013.124 3.124 3.126 3.126 0 01-3.124 3.124h-50a3.12 3.12 0 01-3.123-3.124c0-1.72 1.4-3.124 3.124-3.124h49.999zm0-18.752a3.13 3.13 0 013.124 3.124 3.126 3.126 0 01-3.124 3.124h-50a3.12 3.12 0 01-3.123-3.124c0-1.72 1.4-3.124 3.124-3.124h49.999zm0-18.748a3.13 3.13 0 013.124 3.124 3.126 3.126 0 01-3.124 3.124h-50a3.12 3.12 0 01-3.123-3.124c0-1.72 1.4-3.124 3.124-3.124h49.999zm68.751 37.5a3.133 3.133 0 013.124 3.124 3.126 3.126 0 01-3.124 3.124h-49.999a3.116 3.116 0 01-3.124-3.124 3.123 3.123 0 013.124-3.124h49.999zm0-18.752a3.133 3.133 0 013.124 3.124 3.126 3.126 0 01-3.124 3.124h-49.999a3.116 3.116 0 01-3.124-3.124 3.123 3.123 0 013.124-3.124h49.999zm0-18.748a3.133 3.133 0 013.124 3.124 3.126 3.126 0 01-3.124 3.124h-49.999a3.116 3.116 0 01-3.124-3.124 3.123 3.123 0 013.124-3.124h49.999zm0-37.499c1.72 0 3.124 1.4 3.124 3.124a3.13 3.13 0 01-3.124 3.124H53.127a3.126 3.126 0 01-3.124-3.124c0-1.724 1.4-3.124 3.124-3.124h118.75zm0 18.748a3.133 3.133 0 013.124 3.124 3.126 3.126 0 01-3.124 3.124H53.127a3.12 3.12 0 01-3.124-3.124c0-1.72 1.4-3.124 3.124-3.124h118.75zM56.255 81.25h43.751A6.245 6.245 0 00106.258 75V31.275a6.245 6.245 0 00-6.252-6.252H56.255a6.245 6.245 0 00-6.252 6.252V75a6.248 6.248 0 006.252 6.251zm6.248-43.75h31.251v31.25H62.503V37.5z" fill="currentColor"/></symbol>
<symbol id="telegram" viewBox="0 0 200 200"><path d="M170.625 29.375C151.875 10.312 126.875 0 100 0S48.125 10.313 29.375 29.375C10.625 48.438 0 73.125 0 100s10.313 51.875 29.375 70.625C48.438 189.375 73.125 200 100 200s51.875-10.313 70.625-29.375C189.375 151.562 200 126.875 200 100s-10.313-51.875-29.375-70.625zM100 190.313C50 190.313 9.687 150 9.687 100S50 9.687 100 9.687 190.313 50.313 190.313 100c0 49.687-40.313 90.313-90.313 90.313z" fill="currentColor"/><path d="M147.187 53.75c-3.437-2.188-8.749-.313-9.999.313L41.563 91.25c-3.438 1.25-7.188 4.063-6.563 8.438.625 4.999 5.938 6.874 6.563 7.187l22.187 7.5c1.563 5.625 6.875 22.812 8.125 26.562.938 3.125 2.188 6.875 5.625 6.875.313.313.938.313 1.875.313 2.188 0 3.438-.625 4.063-1.562l12.812-11.876 21.563 16.563c.312.313.312.312.937.312 1.875.938 3.438.938 4.688.938 1.25 0 2.812-.313 3.437-.625 3.75-1.563 5.313-5 5.625-5.625 0-.313.313-.313.313-.625L150 60v-.625c0-3.438-1.875-5-2.813-5.625zm-64.375 83.438l1.25-11.876 6.25 4.688-7.5 7.188zm42.813 6.874c-.312.313-.625.938-1.25 1.25-.625.313-1.25.313-2.188-.312l-23.75-18.438-11.874-9.375c10-8.75 40.937-36.562 42.187-38.124 1.25-1.25 2.813-2.813 2.5-5 0-.313 0-.313-.312-.626-.313-1.25-.938-2.5-2.188-3.124-2.187-1.25-4.687-.313-6.875.937l-56.25 35.937-22.188-7.5c-.312-.312-.937-.312-1.25-.937.313-.313.938-.625 1.25-.625h.313l95.313-37.5h.312c.625-.313 1.563-.625 2.5-.625l-16.25 84.062z" fill="currentColor"/></symbol>
<symbol id="user" viewBox="0 0 126 138"><path d="M63 .25C38.906.25 19.25 19.906 19.25 44c0 15.063 7.688 28.438 19.337 36.331C16.294 89.894.5 112.02.5 137.75H13c0-27.687 22.313-50 50-50 27.688 0 50 22.313 50 50h12.5c0-25.731-15.794-47.85-38.088-57.425A43.898 43.898 0 00106.75 44C106.75 19.906 87.094.25 63 .25zm0 12.5A31.158 31.158 0 0194.25 44 31.158 31.158 0 0163 75.25 31.158 31.158 0 0131.75 44 31.158 31.158 0 0163 12.75z" fill="currentColor"/></symbol>
<symbol id="vk" viewBox="0 0 211 126"><path d="M205.891 8.977c1.445-4.883 0-8.477-6.953-8.477H175.93c-5.86 0-8.555 3.086-10 6.523 0 0-11.719 28.555-28.282 47.07-5.351 5.352-7.812 7.071-10.742 7.071-1.445 0-3.672-1.719-3.672-6.602V8.977c0-5.86-1.64-8.477-6.484-8.477H80.578c-3.672 0-5.86 2.734-5.86 5.273 0 5.547 8.282 6.836 9.141 22.461v33.907c0 7.422-1.328 8.789-4.257 8.789-7.813 0-26.797-28.672-38.047-61.485C39.289 3.078 37.063.5 31.165.5H8.155C1.594.5.266 3.586.266 7.023c0 6.094 7.812 36.368 36.367 76.368 19.023 27.304 45.82 42.109 70.195 42.109 14.649 0 16.445-3.281 16.445-8.945 0-26.094-1.328-28.555 6.016-28.555 3.398 0 9.258 1.719 22.93 14.883 15.625 15.625 18.203 22.617 26.953 22.617h23.008c6.562 0 9.883-3.281 7.968-9.766-4.375-13.632-33.945-41.68-35.273-43.554-3.398-4.375-2.422-6.328 0-10.235.039-.039 28.125-39.57 31.016-52.968z" fill="currentColor"/></symbol>
</svg>